<svg width="73" height="87" viewBox="0 0 73 87" fill="none" xmlns="http://www.w3.org/2000/svg">
<path d="M27.6845 8.55672V16.279H22.1081H16.5318V19.0004V21.7218L18.7486 21.7311L20.9607 21.7451L20.7313 21.8335C20.1943 22.0382 18.8404 22.6429 18.0968 23.0058C9.75758 27.0856 3.92423 33.9845 1.35865 42.7953C0.449914 45.9121 -0.00904416 48.8987 0.000135005 51.6806C0.00931417 56.728 0.945589 61.9289 2.60243 66.1715C6.10428 75.1266 13.2089 81.3928 23.2326 84.3608C27.2898 85.561 31.8839 86.1844 35.1012 85.9704C43.6608 85.3982 50.5819 83.1001 55.892 79.0715C62.9508 73.7124 67.0585 65.176 67.4761 54.9789C67.5588 53.0297 67.3706 49.3081 67.0172 45.7307C66.4618 40.153 65.2227 31.3235 63.9835 24.1316C63.855 23.3826 63.7035 22.4755 63.6438 22.1172C63.1344 19.0283 63.2124 16.0464 63.8779 13.311C64.7683 9.63132 66.8336 6.30981 69.7709 3.8303C70.5741 3.15576 71.4645 2.52309 72.1529 2.14629L72.4926 1.96021L72.3182 1.92299C72.0428 1.87182 69.8077 1.93694 69.1054 2.02068C68.2747 2.11837 67.0493 2.36493 66.3517 2.57892C65.498 2.84408 64.9886 3.04411 64.1946 3.43954C62.8728 4.09547 61.9503 4.7607 60.9085 5.81205C60.1695 6.56101 59.7886 7.02621 59.2837 7.78914C58.5127 8.96144 57.8839 10.3291 57.5581 11.534L57.503 11.7433L57.4663 11.5805C57.4433 11.4921 57.402 11.1386 57.3745 10.799C57.2368 9.19869 57.6223 7.54723 58.4989 5.98417C58.9854 5.11425 59.784 4.10011 60.4679 3.48605C60.6377 3.33254 60.757 3.20693 60.7341 3.20693C60.656 3.20693 59.7381 3.61631 59.1965 3.89078C58.453 4.26759 57.8151 4.6444 57.0119 5.18868C52.2938 8.36134 49.7604 12.8179 49.7604 17.9305C49.7604 20.3914 50.0679 22.2894 50.9032 25.0247C51.8808 28.2207 53.5651 32.1051 55.5386 35.7243C58.0262 40.2786 59.7519 45.2516 60.2017 49.1453C60.399 50.8619 60.3072 53.4391 59.9676 55.6813C58.8523 63.0733 55.4101 69.2744 50.2147 73.2426C48.9618 74.2009 47.8832 74.8661 46.3411 75.6383C42.7337 77.4433 38.9657 78.3923 34.0411 78.7365C29.2266 79.0761 23.765 78.0527 19.3314 75.9919C15.1458 74.0427 11.6668 71.0329 9.1793 67.2182C6.66421 63.3617 5.04867 58.5051 4.43367 52.9599C4.27303 51.5224 4.44744 49.2523 4.90181 46.9309C5.95282 41.4974 8.26597 36.785 11.7219 33.0401C15.288 29.1743 20.1438 26.411 25.9634 24.9364C26.7712 24.7317 27.533 24.5595 27.6248 24.5595C27.6753 24.5595 27.6845 28.7882 27.6845 47.7729V70.9863H30.2088H32.733V46.3541V21.7218H38.6306H44.5282V19.0004V16.279H38.6306H32.733V8.55672V0.834427H30.2088H27.6845V8.55672Z" fill="black"/>
</svg>
